# xmcd CD database file
#
# Track frame offsets:
#	175
#	26800
#	48512
#	68800
#	92275
#	113062
#	134675
#	155225
#	185812
#	216037
#	238300
#	267325
#	286125
#
# Disc length: 4298 seconds
#
# Revision: 2
# Processed by: cddbd v1.4PL0 Copyright (c) Steve Scherf et al.
# Submitted via: CDex 1.50beta9
#
DISCID=c710c80d
DTITLE=Lee Ritenour - Wes Bound (1-7) and Stolen Moments (8-13)
DYEAR=1900
DGENRE=Jazz
TTITLE0=Wes Bound
TTITLE1=Boss City
TTITLE2=A Little Bumpin'
TTITLE3=Waiting In Vain
TTITLE4=Goin' On To Detroit
TTITLE5=Road Song
TTITLE6=West Coast Blues
TTITLE7=Uptown
TTITLE8=Stolen Moments
TTITLE9=Haunted Heart
TTITLE10=Waltz For Carmen
TTITLE11=St. Bart's
TTITLE12=Blue In Green
EXTD=
EXTT0=
EXTT1=
EXTT2=
EXTT3=
EXTT4=
EXTT5=
EXTT6=
EXTT7=
EXTT8=
EXTT9=
EXTT10=
EXTT11=
EXTT12=
PLAYORDER=
